<?xml version="1.0" standalone="no"?>
<!DOCTYPE svg PUBLIC "-//W3C//DTD SVG 20010904//EN"
 "http://www.w3.org/TR/2001/REC-SVG-20010904/DTD/svg10.dtd">
<svg version="1.0" xmlns="http://www.w3.org/2000/svg"
 width="900.000000pt" height="512.000000pt" viewBox="0 0 900.000000 512.000000"
 preserveAspectRatio="xMidYMid meet">

<g transform="translate(0.000000,512.000000) scale(0.100000,-0.100000)"
fill="#000000" stroke="none">
<path d="M3730 5109 c-97 -16 -174 -62 -280 -168 -52 -53 -141 -151 -197 -218
-157 -187 -208 -222 -503 -343 -214 -88 -289 -128 -361 -197 -108 -103 -140
-200 -164 -500 -29 -365 -33 -377 -216 -671 -143 -229 -171 -298 -177 -423 -7
-152 23 -232 184 -486 164 -260 183 -318 208 -648 23 -298 58 -409 160 -509
71 -70 137 -107 349 -193 267 -109 306 -132 418 -243 52 -52 143 -152 202
-221 115 -137 207 -215 297 -251 47 -19 73 -22 180 -22 114 1 141 5 310 48
329 82 390 83 700 7 226 -55 290 -64 388 -58 164 10 278 94 518 381 161 192
235 243 521 356 188 75 268 118 339 183 116 106 153 217 174 508 24 342 44
406 218 675 174 272 213 412 161 580 -28 90 -59 149 -169 324 -167 265 -181
309 -205 616 -19 240 -37 338 -77 424 -62 130 -173 208 -453 320 -289 115
-348 159 -562 412 -189 225 -294 300 -440 318 -94 12 -188 -1 -413 -57 -188
-46 -200 -48 -340 -48 -139 0 -153 2 -337 48 -161 40 -329 70 -368 66 -5 -1
-35 -5 -65 -10z m399 -1031 c64 -33 133 -72 153 -85 l38 -23 2 -422 3 -422
180 -102 c99 -57 183 -103 186 -104 3 0 6 62 8 138 1 75 5 140 9 144 14 14
453 268 464 268 6 0 78 -37 160 -82 l148 -83 1 -445 c1 -596 1 -1426 0 -1526
l-1 -81 -39 -26 c-35 -23 -303 -181 -393 -231 l-38 -21 -44 25 c-121 67 -249
144 -262 157 -12 12 -14 84 -14 431 l0 417 -177 100 c-98 55 -183 101 -190
103 -10 3 -13 -28 -13 -140 l0 -144 -42 -24 c-24 -13 -127 -72 -230 -132 -102
-59 -194 -108 -203 -108 -21 0 -55 18 -198 103 l-118 70 3 1018 c2 779 6 1021
15 1030 19 19 446 257 462 258 8 1 66 -27 130 -61z"/>
<path d="M3570 2836 l0 -984 118 -64 117 -64 5 405 c5 377 6 406 23 409 9 2
79 -33 155 -77 75 -44 274 -158 442 -254 l305 -174 3 -418 c1 -293 6 -422 14
-432 11 -13 187 -116 221 -129 16 -6 17 45 17 974 l0 980 -115 66 c-63 36
-117 66 -120 66 -3 0 -5 -172 -5 -382 0 -211 -3 -393 -6 -405 -9 -32 -40 -29
-100 8 -27 18 -157 94 -289 170 -409 234 -518 298 -529 309 -7 7 -13 145 -16
428 l-5 417 -110 67 c-60 37 -113 67 -117 67 -5 1 -8 -442 -8 -983z"/>
</g>
</svg>
